<?xml version="1.0" encoding="utf-8"?>
<!-- Generator: Adobe Illustrator 16.0.0, SVG Export Plug-In . SVG Version: 6.00 Build 0)  -->
<!DOCTYPE svg PUBLIC "-//W3C//DTD SVG 1.1//EN" "http://www.w3.org/Graphics/SVG/1.1/DTD/svg11.dtd">
<svg version="1.1" id="Layer_1" xmlns="http://www.w3.org/2000/svg" xmlns:xlink="http://www.w3.org/1999/xlink" x="0px" y="0px"
	 width="595.28px" height="841.89px" viewBox="0 0 595.28 841.89" enable-background="new 0 0 595.28 841.89" xml:space="preserve">
<g>
	<path fill="#676767" d="M57.554,42.907c0,1.022-0.516,2.045-1.547,2.825L34.871,61.708c-2.063,1.56-5.409,1.56-7.472,0
		L6.263,45.731c-2.063-1.56-2.063-4.088,0-5.649c2.064-1.56,5.41-1.56,7.473,0l17.398,13.153l17.399-13.153
		c2.064-1.56,5.409-1.56,7.473,0C57.038,40.862,57.554,41.884,57.554,42.907z"/>
	<path fill="#676767" d="M36.418,54.89V10.954c0-2.206-2.366-3.995-5.284-3.995c-2.917,0-5.284,1.789-5.284,3.995V54.89
		c0,2.207,2.366,3.993,5.284,3.993C34.053,58.883,36.418,57.096,36.418,54.89z"/>
</g>
</svg>
